<svg xmlns="http://www.w3.org/2000/svg" viewBox="0 0 189.27 55.7"><defs><style>.cls-1{fill:#1a171b;fill-rule:evenodd;}.cls-2{fill:#e2001a;}.cls-3{fill:none;stroke:#fff;stroke-linecap:round;stroke-linejoin:round;stroke-width:0;}</style></defs><title>Recurso 3</title><g id="Capa_2" data-name="Capa 2"><g id="Capa_1-2" data-name="Capa 1"><path class="cls-1" d="M81.7,28.46c0-3.14,2-5.1,5.43-5.1a5.28,5.28,0,0,1,5.15,5.1Zm22.21,5.93c.17-10.63-6.37-18.13-17.23-18.13-9.4,0-16.62,6.15-16.62,15.78,0,9.85,7.27,15.22,16.67,15.22,6.83,0,14.22-2.41,16.23-9.68H91.83a4.65,4.65,0,0,1-4.37,2.57,5.64,5.64,0,0,1-5.76-5.76Z"/><path class="cls-1" d="M118.19,46.42V17.1H106.56V46.42ZM106.56,13.35h11.63V5.07H106.56Z"/><polygon class="cls-1" points="137.43 36.01 143.7 46.42 157.69 46.42 145.44 28.46 156.29 17.1 142.69 17.1 135.25 26.05 135.25 5.12 123.61 5.12 123.61 46.42 135.25 46.42 135.25 38.19 137.43 36.01"/><path class="cls-1" d="M189.27,46.46V28.4c0-7-.84-12.14-14.71-12.14-11.59,0-16,3.63-16,9.85h11.19c.28-2.52,2.46-2.86,4.09-2.86,1.23,0,3.8.28,3.8,2.41,0,5.48-20.87-.56-20.87,12.76,0,6.1,4.92,8.84,10.46,8.84,4.37,0,7.73-.9,11-4v3.13S189.16,46.42,189.27,46.46Zm-16.79-5.8c-2.29,0-3.69-1-3.69-2.47,0-3.8,5-2.91,8.84-4.75C177.91,37.47,176.57,40.66,172.48,40.66Z"/><path class="cls-2" d="M8.82,28.27c0-5,4.79-9,10.7-9H54.34A27.84,27.84,0,1,0,54,37.37H19.43C13.52,37.37,8.82,33.25,8.82,28.27Z"/><path class="cls-3" d="M67.33,37.39h0"/></g></g></svg>